<?xml version="1.0" encoding="UTF-8" standalone="no"?>
<!-- Created with Inkscape (http://www.inkscape.org/) -->

<svg
   xmlns:dc="http://purl.org/dc/elements/1.1/"
   xmlns:cc="http://creativecommons.org/ns#"
   xmlns:rdf="http://www.w3.org/1999/02/22-rdf-syntax-ns#"
   xmlns:svg="http://www.w3.org/2000/svg"
   xmlns="http://www.w3.org/2000/svg"
   xmlns:sodipodi="http://sodipodi.sourceforge.net/DTD/sodipodi-0.dtd"
   xmlns:inkscape="http://www.inkscape.org/namespaces/inkscape"
   version="1.1"
   id="svg39157"
   xml:space="preserve"
   width="800"
   height="800"
   viewBox="0 0 800 800"
   sodipodi:docname="graduate-college-publicdomainvectors.org.svg"
   inkscape:version="0.92.4 (5da689c313, 2019-01-14)"><metadata
     id="metadata39163"><rdf:RDF><cc:Work
         rdf:about=""><dc:format>image/svg+xml</dc:format><dc:type
           rdf:resource="http://purl.org/dc/dcmitype/StillImage" /><dc:title></dc:title></cc:Work></rdf:RDF></metadata><defs
     id="defs39161"><clipPath
       clipPathUnits="userSpaceOnUse"
       id="clipPath39173"><path
         d="M 0,600 H 600 V 0 H 0 Z"
         id="path39171"
         inkscape:connector-curvature="0" /></clipPath></defs><sodipodi:namedview
     pagecolor="#ffffff"
     bordercolor="#666666"
     borderopacity="1"
     objecttolerance="10"
     gridtolerance="10"
     guidetolerance="10"
     inkscape:pageopacity="0"
     inkscape:pageshadow="2"
     inkscape:window-width="797"
     inkscape:window-height="480"
     id="namedview39159"
     showgrid="false"
     inkscape:zoom="0.295"
     inkscape:cx="400"
     inkscape:cy="400"
     inkscape:window-x="-8"
     inkscape:window-y="-8"
     inkscape:window-maximized="1"
     inkscape:current-layer="g39165" /><g
     id="g39165"
     inkscape:groupmode="layer"
     inkscape:label="graduate-college-publicdomainvectors.org"
     transform="matrix(1.3333333,0,0,-1.3333333,0,800)"><g
       id="g39167"><g
         id="g39169"
         clip-path="url(#clipPath39173)"><path
           d="m 244.951,563.647 c -0.707,-0.509 -1.42,-1.02 -2.129,-1.532 l 1.649,-0.801 z"
           style="fill:#b43333;fill-opacity:1;fill-rule:nonzero;stroke:none"
           id="path39175"
           inkscape:connector-curvature="0" /><path
           d="m 301.776,578.629 c -0.955,0.302 -1.915,0.602 -2.882,0.907 l 2.05,-3.689 z"
           style="fill:#a88ba8;fill-opacity:1;fill-rule:nonzero;stroke:none"
           id="path39177"
           inkscape:connector-curvature="0" /><path
           d="m 316.26,574.059 c -4.673,1.481 -9.496,3.004 -14.484,4.57 l -0.832,-2.782 z"
           style="fill:#6fa0c7;fill-opacity:1;fill-rule:nonzero;stroke:none"
           id="path39179"
           inkscape:connector-curvature="0" /><path
           d="m 300.944,575.847 -2.05,3.689 c -3.43,1.075 -6.935,2.172 -10.519,3.291 l -10.824,3.379 -2.141,-1.661 c -1.178,-0.914 -5.065,-3.507 -8.638,-5.762 -3.572,-2.256 -11.352,-7.598 -17.286,-11.871 -1.428,-1.028 -2.968,-2.137 -4.535,-3.265 l -0.48,-2.333 z"
           style="fill:#ae8e79;fill-opacity:1;fill-rule:nonzero;stroke:none"
           id="path39181"
           inkscape:connector-curvature="0" /><path
           d="m 323.782,529.962 42.231,27.995 c -14.597,4.851 -30.947,10.142 -49.753,16.102 l -15.316,1.788 z"
           style="fill:#84d2ca;fill-opacity:1;fill-rule:nonzero;stroke:none"
           id="path39183"
           inkscape:connector-curvature="0" /><path
           d="m 244.471,561.314 -1.649,0.801 c -4.252,-3.057 -8.415,-6.049 -10.805,-7.762 -3.673,-2.632 -11.629,-8.903 -17.679,-13.933 -6.05,-5.029 -12.344,-9.756 -13.987,-10.505 -0.249,-0.113 -0.504,-0.247 -0.759,-0.394 l 3.977,-15.13 z"
           style="fill:#c33023;fill-opacity:1;fill-rule:nonzero;stroke:none"
           id="path39185"
           inkscape:connector-curvature="0" /><path
           d="m 199.592,529.521 c -1.432,-0.825 -2.889,-2.116 -3.468,-3.124 -0.485,-0.845 -3.104,-3.233 -6.487,-5.979 l 13.932,-6.027 z"
           style="fill:#c11e24;fill-opacity:1;fill-rule:nonzero;stroke:none"
           id="path39187"
           inkscape:connector-curvature="0" /><path
           d="m 443.445,508.793 c 2.147,0.99 3.646,1.466 4.847,1.637 4.343,0.612 14.44,5.287 16.324,7.555 0.974,1.174 0.895,1.509 -0.651,2.76 -0.966,0.782 -3.605,2.03 -5.865,2.774 -0.952,0.312 -2.677,0.991 -4.791,1.876 l -21.354,-14.949 z"
           style="fill:#3d6fbf;fill-opacity:1;fill-rule:nonzero;stroke:none"
           id="path39189"
           inkscape:connector-curvature="0" /><path
           d="m 453.309,525.395 c -2.918,1.217 -6.58,2.824 -9.979,4.394 -4.181,1.928 -8.1,3.62 -13.09,5.585 l 1.715,-24.928 z"
           style="fill:#3f7bc7;fill-opacity:1;fill-rule:nonzero;stroke:none"
           id="path39191"
           inkscape:connector-curvature="0" /><path
           d="m 300.944,575.847 -56.473,-14.533 79.311,-31.352 z"
           style="fill:#aac787;fill-opacity:1;fill-rule:nonzero;stroke:none"
           id="path39193"
           inkscape:connector-curvature="0" /><path
           d="m 189.637,520.418 c -1.372,-1.113 -2.869,-2.286 -4.401,-3.438 -2.143,-1.611 -4.242,-3.3 -6.213,-4.982 l 24.546,2.393 z"
           style="fill:#c61e25;fill-opacity:1;fill-rule:nonzero;stroke:none"
           id="path39195"
           inkscape:connector-curvature="0" /><path
           d="m 244.471,561.314 -1.661,-67.686 80.972,36.334 z"
           style="fill:#c2c767;fill-opacity:1;fill-rule:nonzero;stroke:none"
           id="path39197"
           inkscape:connector-curvature="0" /><path
           d="m 431.955,510.446 -1.715,24.928 c -5.069,1.992 -11.242,4.266 -19.918,7.347 l -27.575,-28.953 z"
           style="fill:#4795d7;fill-opacity:1;fill-rule:nonzero;stroke:none"
           id="path39199"
           inkscape:connector-curvature="0" /><path
           d="m 410.322,542.721 c -4.289,1.523 -9.189,3.243 -14.871,5.226 -4.902,1.71 -10,3.464 -15.333,5.273 l 2.629,-39.452 z"
           style="fill:#4689cf;fill-opacity:1;fill-rule:nonzero;stroke:none"
           id="path39201"
           inkscape:connector-curvature="0" /><path
           d="m 382.747,513.768 -2.629,39.452 c -4.523,1.536 -9.216,3.112 -14.105,4.737 l -42.231,-27.995 z"
           style="fill:#59ace3;fill-opacity:1;fill-rule:nonzero;stroke:none"
           id="path39203"
           inkscape:connector-curvature="0" /><path
           d="m 203.569,514.391 39.241,-20.763 1.661,67.686 z"
           style="fill:#cd6920;fill-opacity:1;fill-rule:nonzero;stroke:none"
           id="path39205"
           inkscape:connector-curvature="0" /><path
           d="m 242.81,493.628 29.067,-60.419 64.985,23.67 z"
           style="fill:#d5e85d;fill-opacity:1;fill-rule:nonzero;stroke:none"
           id="path39207"
           inkscape:connector-curvature="0" /><path
           d="m 435.04,504.277 c 3.63,2.114 6.322,3.556 8.405,4.516 l -11.49,1.653 z"
           style="fill:#4486ce;fill-opacity:1;fill-rule:nonzero;stroke:none"
           id="path39209"
           inkscape:connector-curvature="0" /><path
           d="m 382.747,513.768 -58.965,16.194 13.08,-73.083 z"
           style="fill:#95dbd6;fill-opacity:1;fill-rule:nonzero;stroke:none"
           id="path39211"
           inkscape:connector-curvature="0" /><path
           d="M 323.782,529.962 242.81,493.628 336.862,456.879 Z"
           style="fill:#b3e079;fill-opacity:1;fill-rule:nonzero;stroke:none"
           id="path39213"
           inkscape:connector-curvature="0" /><path
           d="m 193.451,438.258 c 0.13,-4.807 0.27,-9.302 0.411,-13.128 l 13.236,0.397 z"
           style="fill:#e02324;fill-opacity:1;fill-rule:nonzero;stroke:none"
           id="path39215"
           inkscape:connector-curvature="0" /><path
           d="m 382.747,513.768 32.652,-21.578 c 8.606,5.443 14.917,9.334 19.641,12.087 l -3.085,6.169 z"
           style="fill:#4999da;fill-opacity:1;fill-rule:nonzero;stroke:none"
           id="path39217"
           inkscape:connector-curvature="0" /><path
           d="m 364.27,423.036 16.23,7.945 c 1.018,5.457 0.764,13.163 -0.707,19.358 -0.896,3.771 -1.85,9.228 -2.119,12.127 l -0.489,5.272 21.507,13.796 c 6.373,4.088 11.898,7.613 16.707,10.656 l -32.652,21.578 z"
           style="fill:#5fc5ef;fill-opacity:1;fill-rule:nonzero;stroke:none"
           id="path39219"
           inkscape:connector-curvature="0" /><path
           d="m 179.023,511.998 c -6.904,-5.89 -12.222,-11.672 -12.222,-13.589 0,-1.746 2.551,-2.618 9.525,-3.255 5.989,-0.548 13.775,-2.388 15.321,-3.622 0.612,-0.488 1.03,-10.41 1.362,-32.317 0.106,-6.94 0.263,-14.251 0.442,-20.957 l 13.647,-12.731 -1.946,49.009 c -1.091,5.643 -1.839,9.751 -2.207,11.66 0,1.01 0.544,1.515 1.629,1.515 0.017,0 0.035,-0.001 0.054,-0.001 l -1.059,26.681 z"
           style="fill:#dd2824;fill-opacity:1;fill-rule:nonzero;stroke:none"
           id="path39221"
           inkscape:connector-curvature="0" /><path
           d="m 203.569,514.391 1.059,-26.681 c 2.235,-0.081 19.503,-4.927 30.679,-8.389 l 7.503,14.307 z"
           style="fill:#df561d;fill-opacity:1;fill-rule:nonzero;stroke:none"
           id="path39223"
           inkscape:connector-curvature="0" /><path
           d="m 211.404,433.737 c -0.587,2.859 -1.217,5.815 -1.861,8.705 -1.07,4.804 -2.47,13.859 -3.112,20.126 l -1.167,11.393 c -0.038,0.193 -0.075,0.386 -0.112,0.575 l 1.946,-49.009 z"
           style="fill:#df561d;fill-opacity:1;fill-rule:nonzero;stroke:none"
           id="path39225"
           inkscape:connector-curvature="0" /><path
           d="m 364.27,423.036 18.477,90.732 -45.885,-56.889 z"
           style="fill:#90dbea;fill-opacity:1;fill-rule:nonzero;stroke:none"
           id="path39227"
           inkscape:connector-curvature="0" /><path
           d="m 212.89,426.215 c -0.443,2.341 -0.947,4.889 -1.486,7.522 l -4.306,-8.21 z"
           style="fill:#e78915;fill-opacity:1;fill-rule:nonzero;stroke:none"
           id="path39229"
           inkscape:connector-curvature="0" /><path
           d="m 242.81,493.628 -7.503,-14.307 c 5.242,-1.625 9.145,-2.944 9.525,-3.325 0.365,-0.366 -0.308,-5.746 -1.497,-11.958 -1.816,-9.491 -2.149,-13.235 -2.086,-23.472 0.024,-4.037 0.089,-8.074 0.167,-10.968 l 30.461,3.611 z"
           style="fill:#e78915;fill-opacity:1;fill-rule:nonzero;stroke:none"
           id="path39231"
           inkscape:connector-curvature="0" /><path
           d="m 336.862,456.879 -64.985,-23.67 47.546,-31.35 z"
           style="fill:#dbed7b;fill-opacity:1;fill-rule:nonzero;stroke:none"
           id="path39233"
           inkscape:connector-curvature="0" /><path
           d="m 389.597,404.701 c 0.333,2.283 1.006,5.02 1.618,6.485 1.893,4.528 1.157,13.054 -1.357,15.73 -1.908,2.031 -3.673,2.165 -8.468,0.646 -1.769,-0.56 -1.846,-0.457 -1.276,1.687 0.144,0.545 0.273,1.126 0.386,1.732 l -16.23,-7.945 z"
           style="fill:#6dcef1;fill-opacity:1;fill-rule:nonzero;stroke:none"
           id="path39235"
           inkscape:connector-curvature="0" /><path
           d="m 385.456,391.957 c 2.103,3.869 3.624,8.052 4.018,11.766 0.032,0.312 0.074,0.64 0.123,0.978 l -25.327,18.335 z"
           style="fill:#a7e1d1;fill-opacity:1;fill-rule:nonzero;stroke:none"
           id="path39237"
           inkscape:connector-curvature="0" /><path
           d="m 271.877,433.209 -30.461,-3.611 c 0.051,-1.908 0.109,-3.322 0.165,-3.911 0.249,-2.601 0.157,-2.704 -2.47,-2.75 -2.259,-0.041 -2.86,-0.427 -3.508,-2.259 -0.629,-1.782 -0.443,-2.848 0.961,-5.501 0.959,-1.808 1.748,-4.173 1.753,-5.254 0,-0.06 0.003,-0.125 0.006,-0.192 l 21.304,-10.779 z"
           style="fill:#f28c16;fill-opacity:1;fill-rule:nonzero;stroke:none"
           id="path39239"
           inkscape:connector-curvature="0" /><path
           d="m 213.622,422.229 c -0.219,1.233 -0.465,2.57 -0.732,3.986 l -5.792,-0.688 z"
           style="fill:#f28c16;fill-opacity:1;fill-rule:nonzero;stroke:none"
           id="path39241"
           inkscape:connector-curvature="0" /><path
           d="m 319.423,401.859 44.847,21.177 -27.408,33.843 z"
           style="fill:#c4e9b5;fill-opacity:1;fill-rule:nonzero;stroke:none"
           id="path39243"
           inkscape:connector-curvature="0" /><path
           d="m 195.122,398.803 c 0.104,-3.083 0.191,-6.222 0.259,-9.32 l 21.476,2.617 z"
           style="fill:#ee2d21;fill-opacity:1;fill-rule:nonzero;stroke:none"
           id="path39245"
           inkscape:connector-curvature="0" /><path
           d="m 207.098,425.527 -13.236,-0.397 c 0.157,-4.205 0.312,-7.6 0.456,-9.707 0.328,-4.814 0.599,-10.606 0.804,-16.62 l 21.735,-6.703 z"
           style="fill:#ef2f21;fill-opacity:1;fill-rule:nonzero;stroke:none"
           id="path39247"
           inkscape:connector-curvature="0" /><path
           d="m 216.857,392.1 1.884,0.303 c -0.869,4.688 -1.919,10.079 -2.576,13.198 -0.82,3.889 -1.476,7.931 -1.458,8.982 0.015,0.937 -0.401,3.775 -1.085,7.646 l -6.524,3.298 z"
           style="fill:#f36618;fill-opacity:1;fill-rule:nonzero;stroke:none"
           id="path39249"
           inkscape:connector-curvature="0" /><path
           d="m 238.323,409.731 c 0.105,-2.236 1.752,-9.131 3.182,-13.683 l 18.122,2.904 z"
           style="fill:#f36618;fill-opacity:1;fill-rule:nonzero;stroke:none"
           id="path39251"
           inkscape:connector-curvature="0" /><path
           d="m 271.877,433.209 -12.25,-34.257 59.796,2.907 z"
           style="fill:#ede04b;fill-opacity:1;fill-rule:nonzero;stroke:none"
           id="path39253"
           inkscape:connector-curvature="0" /><path
           d="m 195.381,389.483 c 0.292,-13.241 0.235,-25.701 -0.281,-29.455 -0.416,-3.025 -0.855,-7.976 -0.975,-11 -0.205,-5.203 -0.123,-5.502 1.513,-5.524 0.951,-0.013 2.565,-0.809 3.587,-1.768 0.281,-0.264 0.639,-0.501 1.055,-0.71 l 15.26,47.016 c 0.038,0.715 0.222,1.283 0.46,1.418 l 0.857,2.64 z"
           style="fill:#f14f1b;fill-opacity:1;fill-rule:nonzero;stroke:none"
           id="path39255"
           inkscape:connector-curvature="0" /><path
           d="m 319.423,401.859 20.971,-63.948 23.876,85.125 z"
           style="fill:#daee8f;fill-opacity:1;fill-rule:nonzero;stroke:none"
           id="path39257"
           inkscape:connector-curvature="0" /><path
           d="m 340.394,337.911 28.315,10.983 c -0.416,0.908 -0.838,1.804 -1.254,2.658 l -4.296,8.809 2.523,8.084 c 1.388,4.446 2.833,8.489 3.211,8.983 0.377,0.495 1.883,1.126 3.35,1.401 4.287,0.804 9.607,6.5 13.213,13.128 l -21.186,31.079 z"
           style="fill:#cfecbc;fill-opacity:1;fill-rule:nonzero;stroke:none"
           id="path39259"
           inkscape:connector-curvature="0" /><path
           d="m 340.394,337.911 -80.767,61.041 -6.641,-36.986 c 3.082,-7.553 7.453,-14.147 13.262,-20.096 l 4.337,-4.442 -0.961,-4.291 c -0.932,-4.166 -1.083,-4.346 -5.224,-6.176 -2.345,-1.037 -7.5,-3.818 -11.455,-6.177 -2.33,-1.39 -5.187,-2.896 -8.128,-4.32 l -0.139,-0.769 z"
           style="fill:#f9cf08;fill-opacity:1;fill-rule:nonzero;stroke:none"
           id="path39261"
           inkscape:connector-curvature="0" /><path
           d="m 259.627,398.952 80.767,-61.041 -20.971,63.948 z"
           style="fill:#f2f138;fill-opacity:1;fill-rule:nonzero;stroke:none"
           id="path39263"
           inkscape:connector-curvature="0" /><path
           d="m 241.505,396.048 c 0.369,-1.173 0.724,-2.191 1.034,-2.933 0.651,-1.559 2.055,-3.984 3.119,-5.389 1.148,-1.515 2.141,-4.153 2.44,-6.483 0.911,-7.091 2.519,-13.468 4.888,-19.277 l 6.641,36.986 z"
           style="fill:#f79310;fill-opacity:1;fill-rule:nonzero;stroke:none"
           id="path39265"
           inkscape:connector-curvature="0" /><path
           d="m 220.695,381.56 c -0.396,2.215 -0.845,4.718 -1.351,7.54 -0.184,1.028 -0.388,2.144 -0.603,3.303 l -1.884,-0.303 z"
           style="fill:#f79310;fill-opacity:1;fill-rule:nonzero;stroke:none"
           id="path39267"
           inkscape:connector-curvature="0" /><path
           d="m 244.817,316.464 c -0.119,-0.056 -0.238,-0.114 -0.357,-0.171 l 0.218,-0.598 z"
           style="fill:#f79310;fill-opacity:1;fill-rule:nonzero;stroke:none"
           id="path39269"
           inkscape:connector-curvature="0" /><path
           d="m 216.43,356.295 c 0.146,-2.485 0.041,-4.519 -0.232,-4.519 -0.781,0.003 -1.445,3.208 -1.457,7.034 -0.015,5.039 1.365,2.981 1.689,-2.515 m -5.648,-15.143 c 0.705,0.639 2.148,1.257 3.205,1.375 1.591,0.178 2.001,0.758 2.383,3.359 l 0.461,3.142 1.086,-2.554 c 1.279,-3.005 1.955,-3.209 2.604,-0.786 0.785,2.926 0.508,7.779 -0.728,12.769 -1.147,4.634 -4.229,25.804 -4.261,29.269 -0.001,0.108 0.002,0.213 0.008,0.316 l -15.26,-47.016 c 2.918,-1.466 8.664,-1.537 10.502,0.126"
           style="fill:#f68612;fill-opacity:1;fill-rule:nonzero;stroke:none"
           id="path39271"
           inkscape:connector-curvature="0" /><path
           d="m 244.46,316.293 c -0.328,-0.158 -0.657,-0.315 -0.987,-0.47 l 1.205,-0.128 z"
           style="fill:#f68612;fill-opacity:1;fill-rule:nonzero;stroke:none"
           id="path39273"
           inkscape:connector-curvature="0" /><path
           d="m 216,389.46 c 0.036,0.022 0.073,0.034 0.111,0.034 0.838,0 2.288,-4.968 3.33,-11.408 1.47,-9.095 2.577,-13.736 3.272,-13.736 0.99,0 1.21,-0.83 -2.018,17.21 l -3.838,10.54 z"
           style="fill:#f68612;fill-opacity:1;fill-rule:nonzero;stroke:none"
           id="path39275"
           inkscape:connector-curvature="0" /><path
           d="m 222.551,361.522 c -0.487,-1.316 0.957,-11.926 2.067,-15.179 0.287,-0.845 0.599,-0.893 1.29,-0.202 0.691,0.69 0.562,2.668 -0.535,8.184 -1.656,8.337 -2.039,9.314 -2.822,7.197"
           style="fill:#f68612;fill-opacity:1;fill-rule:nonzero;stroke:none"
           id="path39277"
           inkscape:connector-curvature="0" /><path
           d="m 374.27,334.29 c -0.478,0.984 -0.765,2.053 -1.172,3.538 -0.611,2.227 -2.441,6.809 -4.389,11.066 l -28.315,-10.983 z"
           style="fill:#cde985;fill-opacity:1;fill-rule:nonzero;stroke:none"
           id="path39279"
           inkscape:connector-curvature="0" /><path
           d="m 340.394,337.911 -95.716,-22.216 75.99,-47.962 z"
           style="fill:#facc09;fill-opacity:1;fill-rule:nonzero;stroke:none"
           id="path39281"
           inkscape:connector-curvature="0" /><path
           d="m 397.696,247.802 2.201,63.351 c -3.55,4.062 -6.233,6.413 -11.539,10.557 l -67.69,-53.977 z"
           style="fill:#edd840;fill-opacity:1;fill-rule:nonzero;stroke:none"
           id="path39283"
           inkscape:connector-curvature="0" /><path
           d="m 320.668,267.733 67.69,53.977 c -0.124,0.096 -0.245,0.191 -0.371,0.289 -9.83,7.654 -12.448,9.675 -13.717,12.291 l -33.876,3.621 z"
           style="fill:#f0ec3e;fill-opacity:1;fill-rule:nonzero;stroke:none"
           id="path39285"
           inkscape:connector-curvature="0" /><path
           d="m 196.807,296.399 c -0.887,-2.033 -1.72,-4.207 -2.46,-6.451 -2.02,-6.123 -4.135,-10.848 -8.783,-18.936 l 15.928,-13.244 z"
           style="fill:#f2561a;fill-opacity:1;fill-rule:nonzero;stroke:none"
           id="path39287"
           inkscape:connector-curvature="0" /><path
           d="m 423.846,287.421 c -3.356,2.962 -7.263,6.309 -9.536,8.155 -2.81,2.28 -6.877,6.36 -9.037,9.064 -2.143,2.682 -3.841,4.756 -5.376,6.513 l -2.201,-63.351 z"
           style="fill:#c5e46a;fill-opacity:1;fill-rule:nonzero;stroke:none"
           id="path39289"
           inkscape:connector-curvature="0" /><path
           d="m 320.668,267.733 -75.99,47.962 22.009,-86.578 z"
           style="fill:#f9aa0c;fill-opacity:1;fill-rule:nonzero;stroke:none"
           id="path39291"
           inkscape:connector-curvature="0" /><path
           d="m 185.564,271.012 c -1.735,-3.023 -3.824,-6.512 -6.394,-10.72 -1.11,-1.818 -2.199,-3.628 -3.268,-5.429 l 25.59,2.905 z"
           style="fill:#f14c1c;fill-opacity:1;fill-rule:nonzero;stroke:none"
           id="path39293"
           inkscape:connector-curvature="0" /><path
           d="m 472.36,242.198 c -5.46,13.727 -9.554,20.155 -14.522,24.446 -2.426,2.094 -6.821,6.236 -9.768,9.201 -1.674,1.686 -2.89,2.887 -3.952,3.702 l -1.782,-47.317 z"
           style="fill:#bdb564;fill-opacity:1;fill-rule:nonzero;stroke:none"
           id="path39295"
           inkscape:connector-curvature="0" /><path
           d="m 442.336,232.23 1.782,47.317 c -2.587,1.979 -4.261,1.657 -9.38,0.354 -1.657,-0.422 -3.008,0.44 -8.642,5.515 -0.7,0.63 -1.46,1.307 -2.25,2.005 l -26.15,-39.619 z"
           style="fill:#ccc351;fill-opacity:1;fill-rule:nonzero;stroke:none"
           id="path39297"
           inkscape:connector-curvature="0" /><path
           d="m 244.678,315.695 -1.205,0.128 c -5.105,-2.406 -10.258,-4.475 -13.169,-5.181 -1.158,-0.281 -3.027,-0.162 -4.152,0.267 -1.21,0.459 -5.436,0.57 -10.337,0.271 -6.564,-0.402 -8.789,-0.851 -10.686,-2.152 -2.569,-1.763 -5.684,-6.576 -8.322,-12.629 l 4.685,-38.631 z"
           style="fill:#f57515;fill-opacity:1;fill-rule:nonzero;stroke:none"
           id="path39299"
           inkscape:connector-curvature="0" /><path
           d="m 244.678,315.695 -43.186,-57.927 65.195,-28.651 z"
           style="fill:#f68712;fill-opacity:1;fill-rule:nonzero;stroke:none"
           id="path39301"
           inkscape:connector-curvature="0" /><path
           d="m 175.902,254.863 c -14.29,-24.058 -24.912,-46.505 -32.277,-68.196 -1.156,-3.395 -2.274,-7.006 -3.334,-10.824 l 61.201,81.925 z"
           style="fill:#ef401e;fill-opacity:1;fill-rule:nonzero;stroke:none"
           id="path39303"
           inkscape:connector-curvature="0" /><path
           d="m 201.492,257.768 -61.201,-81.925 c -0.528,-1.903 -1.042,-3.857 -1.539,-5.863 l 62.533,0.795 z"
           style="fill:#f03f1e;fill-opacity:1;fill-rule:nonzero;stroke:none"
           id="path39305"
           inkscape:connector-curvature="0" /><path
           d="m 397.696,247.802 -77.028,19.931 -0.414,-75.781 z"
           style="fill:#f79010;fill-opacity:1;fill-rule:nonzero;stroke:none"
           id="path39307"
           inkscape:connector-curvature="0" /><path
           d="m 320.254,191.952 0.414,75.781 -53.981,-38.616 z"
           style="fill:#f7990f;fill-opacity:1;fill-rule:nonzero;stroke:none"
           id="path39309"
           inkscape:connector-curvature="0" /><path
           d="m 201.492,257.768 -0.207,-86.993 65.402,58.342 z"
           style="fill:#f36518;fill-opacity:1;fill-rule:nonzero;stroke:none"
           id="path39311"
           inkscape:connector-curvature="0" /><path
           d="m 393.337,162.676 4.359,85.126 -77.442,-55.85 z"
           style="fill:#f2541b;fill-opacity:1;fill-rule:nonzero;stroke:none"
           id="path39313"
           inkscape:connector-curvature="0" /><path
           d="m 486.165,202.235 c -5.714,17.818 -10.077,30.59 -13.805,39.963 l -30.024,-9.968 z"
           style="fill:#bb5436;fill-opacity:1;fill-rule:nonzero;stroke:none"
           id="path39315"
           inkscape:connector-curvature="0" /><path
           d="m 442.336,232.23 -44.64,15.572 -4.359,-85.126 z"
           style="fill:#df711a;fill-opacity:1;fill-rule:nonzero;stroke:none"
           id="path39317"
           inkscape:connector-curvature="0" /><path
           d="m 272.916,169.112 47.338,22.84 -53.567,37.165 z"
           style="fill:#f57914;fill-opacity:1;fill-rule:nonzero;stroke:none"
           id="path39319"
           inkscape:connector-curvature="0" /><path
           d="m 266.687,229.117 -65.402,-58.342 71.631,-1.663 z"
           style="fill:#f36218;fill-opacity:1;fill-rule:nonzero;stroke:none"
           id="path39321"
           inkscape:connector-curvature="0" /><path
           d="m 459.568,165.791 32.495,16.992 c -1.315,4.717 -3.039,10.492 -4.826,16.096 -0.363,1.139 -0.719,2.257 -1.072,3.356 l -43.829,29.995 z"
           style="fill:#c33921;fill-opacity:1;fill-rule:nonzero;stroke:none"
           id="path39323"
           inkscape:connector-curvature="0" /><path
           d="M 459.568,165.791 442.336,232.23 393.337,162.676 Z"
           style="fill:#d63f21;fill-opacity:1;fill-rule:nonzero;stroke:none"
           id="path39325"
           inkscape:connector-curvature="0" /><path
           d="m 201.285,170.775 64.779,-43.186 6.852,41.523 z"
           style="fill:#f1501b;fill-opacity:1;fill-rule:nonzero;stroke:none"
           id="path39327"
           inkscape:connector-curvature="0" /><path
           d="m 201.285,170.775 -62.533,-0.795 c -0.15,-0.607 -0.299,-1.218 -0.446,-1.834 l 43.463,-32.253 z"
           style="fill:#ee2e21;fill-opacity:1;fill-rule:nonzero;stroke:none"
           id="path39329"
           inkscape:connector-curvature="0" /><path
           d="m 272.916,169.112 38.201,-48.168 9.137,71.008 z"
           style="fill:#f36019;fill-opacity:1;fill-rule:nonzero;stroke:none"
           id="path39331"
           inkscape:connector-curvature="0" /><path
           d="m 320.254,191.952 -9.137,-71.008 82.22,41.732 z"
           style="fill:#f1511b;fill-opacity:1;fill-rule:nonzero;stroke:none"
           id="path39333"
           inkscape:connector-curvature="0" /><path
           d="m 473.064,108.071 22.483,57.603 c -0.336,2.556 -0.716,5.111 -1.147,7.669 -0.232,1.547 -1.106,5.03 -2.337,9.44 l -32.495,-16.992 z"
           style="fill:#be1e24;fill-opacity:1;fill-rule:nonzero;stroke:none"
           id="path39335"
           inkscape:connector-curvature="0" /><path
           d="m 490.64,105.841 h 7.927 l -0.5,1.767 c 0,19.639 0.004,38.852 -2.52,58.066 l -22.483,-57.603 z"
           style="fill:#b01d23;fill-opacity:1;fill-rule:nonzero;stroke:none"
           id="path39337"
           inkscape:connector-curvature="0" /><path
           d="m 311.117,120.944 93.847,-0.208 -11.627,41.94 z"
           style="fill:#ef2e21;fill-opacity:1;fill-rule:nonzero;stroke:none"
           id="path39339"
           inkscape:connector-curvature="0" /><path
           d="m 393.337,162.676 11.627,-41.94 54.604,45.055 z"
           style="fill:#dc2a23;fill-opacity:1;fill-rule:nonzero;stroke:none"
           id="path39341"
           inkscape:connector-curvature="0" /><path
           d="m 266.064,127.589 45.053,-6.645 -38.201,48.168 z"
           style="fill:#f2561a;fill-opacity:1;fill-rule:nonzero;stroke:none"
           id="path39343"
           inkscape:connector-curvature="0" /><path
           d="m 138.306,168.146 c -3.35,-14.064 -5.845,-30.641 -6.615,-49.789 l 50.078,17.536 z"
           style="fill:#e52324;fill-opacity:1;fill-rule:nonzero;stroke:none"
           id="path39345"
           inkscape:connector-curvature="0" /><path
           d="m 181.769,135.893 84.295,-8.304 -64.779,43.186 z"
           style="fill:#f03e1e;fill-opacity:1;fill-rule:nonzero;stroke:none"
           id="path39347"
           inkscape:connector-curvature="0" /><path
           d="m 404.964,120.736 68.1,-12.665 -13.496,57.72 z"
           style="fill:#cb1e25;fill-opacity:1;fill-rule:nonzero;stroke:none"
           id="path39349"
           inkscape:connector-curvature="0" /><path
           d="m 404.964,120.736 8.549,-14.895 h 57.9 l 1.651,2.23 z"
           style="fill:#c81e25;fill-opacity:1;fill-rule:nonzero;stroke:none"
           id="path39351"
           inkscape:connector-curvature="0" /><path
           d="m 383.273,105.841 h 20.106 l 1.585,14.895 z"
           style="fill:#e22024;fill-opacity:1;fill-rule:nonzero;stroke:none"
           id="path39353"
           inkscape:connector-curvature="0" /><path
           d="m 311.117,120.944 1.954,-15.103 h 1.934 68.268 l 21.691,14.895 z"
           style="fill:#ef381f;fill-opacity:1;fill-rule:nonzero;stroke:none"
           id="path39355"
           inkscape:connector-curvature="0" /><path
           d="m 252.896,105.841 h 18.686 l -5.518,21.748 z"
           style="fill:#e93d1f;fill-opacity:1;fill-rule:nonzero;stroke:none"
           id="path39357"
           inkscape:connector-curvature="0" /><path
           d="m 131.691,118.357 c -0.163,-4.055 -0.249,-8.228 -0.249,-12.516 h 31.988 l 18.339,30.052 z"
           style="fill:#dc1e25;fill-opacity:1;fill-rule:nonzero;stroke:none"
           id="path39359"
           inkscape:connector-curvature="0" /><path
           d="m 163.43,105.841 h 27.023 l -8.684,30.052 z"
           style="fill:#de2125;fill-opacity:1;fill-rule:nonzero;stroke:none"
           id="path39361"
           inkscape:connector-curvature="0" /><path
           d="m 181.769,135.893 8.684,-30.052 h 62.443 l 13.168,21.748 z"
           style="fill:#ed3520;fill-opacity:1;fill-rule:nonzero;stroke:none"
           id="path39363"
           inkscape:connector-curvature="0" /><path
           d="m 475.248,105.841 h 15.392 l -17.576,2.23 z"
           style="fill:#a91b27;fill-opacity:1;fill-rule:nonzero;stroke:none"
           id="path39365"
           inkscape:connector-curvature="0" /><path
           d="m 266.064,127.589 5.518,-21.748 h 30 l 9.535,15.103 z"
           style="fill:#f14d1c;fill-opacity:1;fill-rule:nonzero;stroke:none"
           id="path39367"
           inkscape:connector-curvature="0" /><path
           d="m 301.582,105.841 h 11.489 l -1.954,15.103 z"
           style="fill:#f1471d;fill-opacity:1;fill-rule:nonzero;stroke:none"
           id="path39369"
           inkscape:connector-curvature="0" /><path
           d="m 403.379,105.841 h 10.134 l -8.549,14.895 z"
           style="fill:#d01e25;fill-opacity:1;fill-rule:nonzero;stroke:none"
           id="path39371"
           inkscape:connector-curvature="0" /><path
           d="m 473.064,108.071 -1.651,-2.23 h 3.835 z"
           style="fill:#b41d23;fill-opacity:1;fill-rule:nonzero;stroke:none"
           id="path39373"
           inkscape:connector-curvature="0" /></g></g></g></svg>